<svg width="800" height="520" viewBox="0 0 800 520" fill="none" xmlns="http://www.w3.org/2000/svg">
  <rect width="800" height="520" rx="40" fill="#101D4D"/>
  <circle cx="625" cy="111" r="92" fill="#6479FF"/>
  <circle cx="625" cy="111" r="56" fill="#9DB1FF"/>
  <circle cx="175" cy="114" r="38" fill="#FFC768"/>
  <circle cx="170" cy="108" r="8" fill="#FFF7D3"/>
  <circle cx="215" cy="162" r="9" fill="#FFF7D3"/>
  <circle cx="132" cy="181" r="6" fill="#FFF7D3"/>
  <circle cx="353" cy="81" r="5" fill="#FFFFFF"/>
  <circle cx="390" cy="122" r="7" fill="#D8E2FF"/>
  <circle cx="286" cy="158" r="4" fill="#D8E2FF"/>
  <path d="M112 400C179 340 247 296 341 284C448 271 574 307 688 394" stroke="#99B4FF" stroke-width="14" stroke-linecap="round" stroke-dasharray="2 24"/>
  <path d="M361 292C421 223 517 235 556 311C578 355 573 410 523 430C475 449 411 425 387 374C373 345 372 316 361 292Z" fill="#FF785A"/>
  <path d="M423 237L474 205L475 270L423 237Z" fill="#FFE7C7"/>
  <circle cx="476" cy="321" r="40" fill="#DCE7FF"/>
  <circle cx="476" cy="321" r="23" fill="#5A74E8"/>
  <path d="M359 362C325 388 287 399 243 400" stroke="#4CE0FF" stroke-width="18" stroke-linecap="round"/>
  <path d="M587 369C620 400 657 414 706 418" stroke="#FFB8F7" stroke-width="18" stroke-linecap="round"/>
</svg>
